<?xml version="1.0" standalone="no"?>
<!DOCTYPE svg PUBLIC "-//W3C//DTD SVG 20010904//EN"
 "http://www.w3.org/TR/2001/REC-SVG-20010904/DTD/svg10.dtd">
<svg version="1.0" xmlns="http://www.w3.org/2000/svg"
 width="1000.000000pt" height="850.000000pt" viewBox="0 0 1000.000000 850.000000"
 preserveAspectRatio="xMidYMid meet">

<g transform="translate(0.000000,850.000000) scale(0.100000,-0.100000)"
fill="#000000" stroke="none">
<path d="M270 5175 l0 -85 -85 0 -85 0 0 -925 0 -925 4815 0 4815 0 0 85 0 85
85 0 85 0 0 925 0 925 -4815 0 -4815 0 0 -85z m9480 -835 c0 -513 -3 -780 -10
-780 -7 0 -10 262 -10 765 l0 765 -4655 0 c-4131 0 -4655 2 -4655 15 0 13 525
15 4665 15 l4665 0 0 -780z m-9480 -165 l0 -765 4655 0 c4131 0 4655 -2 4655
-15 0 -13 -525 -15 -4665 -15 l-4665 0 0 780 c0 513 3 780 10 780 7 0 10 -262
10 -765z m9310 75 l0 -690 -4580 0 -4580 0 0 690 0 690 4580 0 4580 0 0 -690z"/>
<path d="M985 4615 c-5 -2 -27 -6 -48 -10 -41 -7 -100 -53 -123 -96 -18 -36
-18 -132 0 -167 30 -57 85 -91 222 -136 90 -30 119 -51 129 -95 23 -104 -133
-149 -255 -73 -28 18 -57 32 -64 32 -7 0 -26 -19 -41 -42 -34 -51 -29 -63 51
-103 54 -27 68 -29 164 -30 119 0 165 12 216 58 49 42 64 77 64 146 0 129 -43
171 -239 236 -91 30 -131 60 -131 98 0 45 31 70 93 75 50 4 65 0 123 -29 l66
-34 29 35 c36 44 34 68 -10 94 -57 33 -199 57 -246 41z"/>
<path d="M6148 4607 c-97 -28 -170 -99 -205 -200 -26 -77 -23 -243 6 -318 29
-75 80 -132 149 -166 51 -25 67 -28 152 -27 74 0 105 5 141 21 62 28 116 84
148 152 24 51 26 67 26 186 0 119 -2 135 -26 186 -33 69 -87 124 -148 151 -59
25 -179 33 -243 15z m200 -123 c15 -11 38 -42 52 -70 22 -43 25 -62 25 -159 0
-97 -3 -116 -25 -159 -30 -60 -63 -86 -118 -93 -140 -19 -212 67 -212 252 0
134 36 213 110 244 39 17 136 8 168 -15z"/>
<path d="M1663 4593 c-20 -7 -17 -99 3 -107 9 -3 56 -6 105 -6 l89 0 2 -282 3
-283 65 0 65 0 3 282 2 282 103 3 102 3 0 55 0 55 -265 2 c-146 1 -271 -1
-277 -4z"/>
<path d="M2722 4588 c-18 -23 -254 -657 -247 -668 9 -15 111 -12 124 3 6 8 21
43 35 78 l24 64 124 3 125 3 22 -58 c37 -96 44 -103 106 -103 29 0 56 4 60 9
8 13 -240 661 -257 672 -20 13 -104 11 -116 -3z m104 -300 c19 -49 34 -92 34
-94 0 -2 -34 -4 -76 -4 -68 0 -76 2 -71 18 36 112 73 203 75 188 2 -10 19 -59
38 -108z"/>
<path d="M3482 4588 c-17 -17 -17 -649 0 -666 16 -16 100 -16 116 0 8 8 12 54
12 141 l0 130 46 -6 c62 -7 108 -46 166 -143 82 -136 80 -134 148 -134 51 0
60 3 60 18 0 32 -134 246 -168 267 -35 23 -40 35 -14 35 9 0 39 13 67 28 64
35 90 79 90 152 0 101 -55 159 -168 179 -88 15 -339 15 -355 -1z m368 -133
c31 -28 25 -91 -13 -119 -22 -16 -46 -21 -127 -24 l-100 -4 0 87 0 87 109 -4
c91 -3 113 -7 131 -23z"/>
<path d="M4394 4586 c-3 -7 -4 -33 -2 -57 l3 -44 102 -3 103 -3 2 -282 3 -282
63 -3 62 -3 0 286 0 285 98 0 c110 0 122 6 122 60 0 20 -5 41 -12 48 -19 19
-537 17 -544 -2z"/>
<path d="M6945 4591 c-7 -12 222 -640 243 -663 19 -22 104 -25 121 -4 15 18
241 634 241 657 0 16 -8 19 -52 19 -29 0 -59 -4 -66 -9 -12 -7 -134 -324 -170
-441 -13 -44 -17 -50 -20 -30 -6 36 -151 431 -168 458 -12 18 -23 22 -69 22
-29 0 -56 -4 -60 -9z"/>
<path d="M7942 4588 c-19 -19 -17 -651 2 -667 9 -8 82 -11 242 -9 l229 3 0 55
0 55 -172 3 -173 2 0 90 0 89 153 3 152 3 0 55 0 55 -152 3 -153 3 0 74 0 75
154 0 c85 0 161 3 170 6 12 4 16 20 16 54 0 34 -4 50 -16 54 -31 12 -439 7
-452 -6z"/>
<path d="M8845 4589 c-3 -8 -4 -163 -3 -344 l3 -330 60 0 60 0 3 138 3 137 35
0 c71 0 117 -40 202 -181 l57 -94 63 -3 c47 -2 64 1 68 11 8 21 -119 225 -165
268 l-39 35 43 12 c49 13 99 52 120 93 22 41 19 122 -6 170 -16 32 -32 46 -77
67 -53 24 -69 26 -239 30 -149 4 -184 2 -188 -9z m345 -122 c39 -13 57 -48 46
-90 -11 -46 -48 -61 -163 -65 l-103 -4 0 86 0 86 93 -1 c50 0 108 -5 127 -12z"/>
</g>
</svg>
