<?xml version="1.0" standalone="no"?>
<!DOCTYPE svg PUBLIC "-//W3C//DTD SVG 20010904//EN"
 "http://www.w3.org/TR/2001/REC-SVG-20010904/DTD/svg10.dtd">
<svg version="1.0" xmlns="http://www.w3.org/2000/svg"
 width="1000.000000pt" height="850.000000pt" viewBox="0 0 1000.000000 850.000000"
 preserveAspectRatio="xMidYMid meet">

<g transform="translate(0.000000,850.000000) scale(0.100000,-0.100000)"
fill="#000000" stroke="none">
<path d="M665 5153 c-241 -38 -424 -207 -454 -419 -33 -232 85 -380 399 -503
309 -120 388 -163 438 -236 26 -39 32 -57 32 -102 0 -63 -17 -100 -61 -137
-79 -66 -170 -96 -319 -103 -133 -6 -234 13 -377 71 -60 25 -85 31 -91 22 -15
-18 -112 -221 -112 -233 0 -21 168 -87 305 -119 121 -29 408 -27 525 4 277 72
420 238 420 488 0 204 -100 344 -325 456 -38 20 -88 41 -110 48 -22 7 -97 35
-167 62 -195 77 -278 145 -278 229 0 99 70 169 205 205 101 27 273 9 429 -45
33 -12 65 -21 72 -21 14 0 33 38 85 163 l28 67 -36 15 c-51 21 -126 44 -223
67 -83 20 -315 33 -385 21z"/>
<path d="M1665 4868 c-3 -7 -6 -110 -7 -228 l-3 -215 -82 -3 -83 -3 0 -99 0
-99 83 -3 82 -3 3 -418 2 -418 111 3 110 3 -1 404 c0 289 3 407 11 417 9 11
43 14 140 14 l129 0 0 100 0 100 -134 0 c-116 0 -135 2 -140 17 -4 9 -6 111
-6 227 l2 211 -106 3 c-81 3 -107 0 -111 -10z"/>
<path d="M4560 4873 c-1 -5 0 -101 0 -214 0 -113 -2 -213 -6 -222 -5 -14 -21
-17 -90 -17 l-84 0 0 -100 0 -100 78 0 c47 0 83 -5 90 -12 9 -9 12 -116 12
-420 l0 -408 110 0 110 0 2 418 3 417 133 3 132 3 0 99 0 99 -132 3 -133 3 -3
228 -2 227 -110 0 c-61 0 -110 -3 -110 -7z"/>
<path d="M2685 4469 c-22 -5 -72 -25 -110 -44 -180 -89 -298 -267 -312 -469
-11 -172 41 -313 156 -426 118 -116 254 -167 421 -157 104 6 175 29 246 78 23
16 45 29 48 29 3 0 6 -22 6 -50 l0 -50 115 0 115 0 0 520 0 520 -109 0 -108 0
-7 -40 c-8 -49 -22 -50 -65 -6 -18 19 -65 49 -103 66 -61 28 -84 33 -162 36
-50 2 -109 -1 -131 -7z m233 -225 c81 -27 142 -79 181 -159 30 -60 35 -78 35
-149 1 -115 -22 -174 -99 -251 -69 -70 -129 -95 -225 -95 -94 0 -156 26 -225
95 -47 46 -65 73 -78 114 -22 71 -22 191 0 256 25 70 120 165 188 187 65 22
160 22 223 2z"/>
<path d="M4214 4461 c-105 -38 -229 -142 -288 -244 -32 -54 -46 -60 -46 -16 0
16 -5 73 -12 125 l-11 95 -96 -3 -96 -3 0 -515 0 -515 113 -3 112 -3 0 264 c0
295 5 324 66 396 45 52 142 99 222 107 l60 7 11 61 c6 33 15 95 21 136 5 41
13 87 16 103 7 33 -1 33 -72 8z"/>
<path d="M6180 4474 c-141 -28 -286 -128 -364 -249 -63 -97 -81 -166 -81 -300
0 -99 5 -132 24 -188 80 -235 298 -379 551 -364 150 9 267 63 364 168 94 101
135 200 143 344 6 122 -6 192 -50 288 -60 129 -172 229 -317 282 -45 17 -220
29 -270 19z m204 -234 c76 -29 136 -85 177 -167 30 -60 33 -77 33 -148 0 -93
-27 -165 -87 -232 -151 -167 -423 -123 -522 84 -23 49 -28 72 -28 143 -1 71 3
94 24 140 77 166 242 240 403 180z"/>
<path d="M8450 4465 c-188 -53 -346 -213 -395 -401 -19 -74 -19 -203 0 -277
47 -180 183 -326 370 -394 69 -25 256 -25 340 1 66 20 156 64 195 95 l25 20
-80 81 c-44 44 -83 80 -88 80 -5 0 -23 -11 -40 -24 -47 -34 -122 -56 -194 -56
-70 0 -128 19 -190 63 -47 33 -100 105 -86 117 4 4 51 26 103 48 171 72 433
179 545 223 61 24 112 44 114 46 8 5 -35 100 -70 153 -64 99 -151 171 -259
214 -63 25 -218 31 -290 11z m223 -222 c51 -18 126 -89 110 -103 -18 -17 -505
-220 -514 -214 -15 9 1 93 27 146 77 152 232 223 377 171z"/>
<path d="M9814 4461 c-106 -38 -247 -158 -293 -249 -12 -23 -25 -42 -30 -42
-6 0 -31 188 -31 238 0 10 -26 12 -97 10 l-98 -3 0 -515 0 -515 113 -3 112 -3
0 273 c0 265 1 274 24 323 42 91 147 159 264 171 l61 7 6 41 c12 83 35 232 40
259 5 32 -1 33 -71 8z"/>
<path d="M6892 4411 c28 -72 516 -1042 533 -1060 11 -11 57 74 279 523 146
295 266 539 266 541 0 3 -53 5 -118 5 l-118 0 -51 -102 c-128 -254 -207 -431
-237 -530 -10 -34 -23 -18 -50 65 -29 83 -73 181 -194 429 l-67 138 -123 0
c-68 0 -122 -4 -120 -9z"/>
</g>
</svg>
