<?xml version="1.0" standalone="no"?>
<!DOCTYPE svg PUBLIC "-//W3C//DTD SVG 20010904//EN"
 "http://www.w3.org/TR/2001/REC-SVG-20010904/DTD/svg10.dtd">
<svg version="1.0" xmlns="http://www.w3.org/2000/svg"
 width="1000.000000pt" height="850.000000pt" viewBox="0 0 1000.000000 850.000000"
 preserveAspectRatio="xMidYMid meet">

<g transform="translate(0.000000,850.000000) scale(0.100000,-0.100000)"
fill="currentColor" stroke="currentColor">
<path d="M4725 8389 c-856 -57 -1655 -372 -2345 -923 -161 -128 -468 -435
-596 -596 -506 -634 -806 -1342 -904 -2135 -13 -108 -28 -337 -23 -347 5 -10
8281 -10 8286 0 2 4 0 63 -4 132 -48 750 -316 1509 -749 2120 -267 377 -623
733 -1000 1000 -764 541 -1727 812 -2665 749z m-2155 -2001 c112 -50 171 -143
192 -304 16 -118 19 -115 -114 -112 l-113 3 -6 70 c-8 109 -38 145 -120 145
-86 0 -126 -59 -116 -176 8 -101 35 -143 191 -299 78 -77 155 -158 172 -180
80 -103 120 -232 111 -360 -17 -236 -139 -355 -363 -355 -161 0 -263 54 -321
170 -36 71 -56 174 -51 261 l3 54 115 0 115 0 5 -97 c4 -85 8 -100 29 -122 52
-55 151 -52 194 6 28 38 34 124 12 190 -23 70 -58 119 -151 208 -189 180 -248
253 -286 358 -18 47 -22 79 -22 182 0 107 4 133 24 184 25 64 98 148 147 168
114 46 257 48 353 6z m1478 -92 c2 -66 -1 -103 -9 -113 -10 -11 -37 -13 -131
-11 l-118 3 0 -667 0 -668 -22 -5 c-13 -3 -68 -5 -123 -3 l-100 3 -3 668 -2
667 -114 0 c-63 0 -121 3 -130 6 -13 5 -16 25 -16 115 l0 109 383 -2 382 -3 3
-99z m1097 82 c4 -19 127 -786 221 -1377 13 -84 21 -157 18 -162 -6 -11 -214
-12 -231 -1 -7 4 -22 66 -33 137 -12 71 -24 133 -26 137 -5 8 -294 12 -294 4
0 -17 -42 -271 -46 -278 -7 -11 -211 -10 -219 2 -3 5 1 49 9 97 15 85 23 136
65 403 11 69 34 211 52 315 17 105 37 231 44 280 21 136 64 406 71 438 l6 27
179 0 c177 0 179 0 184 -22z m1297 11 c111 -24 181 -81 219 -177 20 -51 23
-75 23 -222 1 -136 -2 -175 -18 -223 -20 -60 -82 -141 -116 -152 -17 -5 -11
-14 39 -64 86 -83 92 -109 102 -416 4 -137 9 -261 11 -275 l3 -25 -117 -3
c-113 -3 -117 -2 -129 20 -9 16 -15 101 -19 273 -4 222 -7 254 -24 281 -26 44
-74 64 -151 64 l-65 0 -2 -317 -3 -318 -120 0 -120 0 -3 783 -2 782 219 0
c125 0 243 -5 273 -11z m1546 -98 c2 -77 -1 -107 -10 -113 -7 -4 -66 -8 -130
-8 l-118 0 0 -665 0 -665 -22 -5 c-13 -3 -68 -5 -123 -3 l-100 3 -3 670 -2
670 -107 -3 c-162 -5 -153 -12 -153 118 l0 110 383 -2 382 -3 3 -104z"/>
<path d="M4946 6081 c-5 -8 -15 -57 -22 -110 -7 -53 -24 -177 -39 -276 -43
-286 -52 -355 -46 -360 2 -3 53 -5 113 -5 95 0 108 2 108 17 0 9 -12 96 -26
192 -14 97 -38 261 -53 366 -16 115 -30 184 -35 176z"/>
<path d="M6200 5935 l0 -235 74 0 c87 0 134 24 153 80 15 46 16 261 1 312 -19
63 -46 78 -144 78 l-84 0 0 -235z"/>
<path d="M857 4113 c-5 -11 10 -240 23 -348 59 -479 195 -935 404 -1355 210
-421 450 -755 786 -1090 335 -336 669 -576 1090 -786 871 -433 1863 -544 2816
-314 600 145 1141 412 1644 814 161 128 468 435 596 596 506 634 806 1342 904
2135 13 108 28 337 23 348 -5 9 -8281 9 -8286 0z m2288 -445 c129 -32 210
-123 241 -267 18 -85 20 -918 3 -1019 -31 -174 -124 -267 -294 -294 -182 -28
-340 41 -404 177 -40 85 -42 123 -39 646 4 553 3 541 66 634 82 119 251 167
427 123z m1040 -20 c3 -13 12 -70 20 -128 8 -58 32 -229 55 -380 22 -151 47
-320 54 -375 42 -302 49 -345 56 -345 4 0 12 39 18 88 6 48 29 211 52 362 22
151 56 385 75 520 20 135 38 253 41 263 5 15 19 17 110 17 81 0 106 -3 110
-14 3 -8 -4 -75 -15 -148 -12 -73 -28 -178 -37 -233 -8 -55 -23 -154 -34 -220
-10 -66 -26 -165 -34 -220 -9 -55 -36 -235 -61 -400 -25 -165 -48 -308 -51
-318 -5 -16 -21 -17 -187 -15 l-182 3 -12 70 c-6 39 -32 205 -58 370 -25 165
-55 356 -65 425 -76 484 -100 646 -100 673 l0 27 120 0 c116 0 120 -1 125 -22z
m1825 -93 l0 -115 -210 0 -210 0 0 -215 0 -215 158 0 c86 0 163 -4 170 -8 9
-6 12 -36 10 -113 l-3 -104 -167 -3 -168 -2 0 -225 0 -225 210 0 210 0 0 -115
0 -115 -335 0 -335 0 0 778 c0 428 3 782 7 785 3 4 154 7 335 7 l328 0 0 -115z
m1037 105 c153 -17 239 -78 278 -196 23 -73 33 -295 16 -375 -18 -84 -57 -155
-106 -192 l-43 -34 29 -17 c39 -23 76 -73 102 -138 18 -47 22 -83 28 -303 4
-137 10 -262 14 -277 l7 -28 -125 0 c-120 0 -125 1 -132 23 -4 12 -10 132 -14
267 -5 206 -9 250 -24 277 -24 45 -65 63 -145 66 l-67 2 -3 -317 -2 -318 -125
0 -125 0 0 778 c0 428 3 782 7 785 10 10 336 8 430 -3z"/>
<path d="M2990 3454 c-93 -34 -90 -15 -90 -574 0 -518 0 -518 52 -554 28 -20
100 -21 137 -1 59 30 61 47 60 558 0 493 -2 514 -49 549 -27 19 -85 31 -110
22z"/>
<path d="M6862 3204 l3 -239 77 0 c134 1 156 35 157 238 1 198 -20 230 -155
236 l-84 3 2 -238z"/>
</g>
</svg>
